<svg xmlns="http://www.w3.org/2000/svg" width="24" height="24" viewBox="0 0 24 24" fill="none">
<path d="M12 0C6.48003 0 2 4.48003 2 10C2 15.52 6.48003 20 12 20C17.52 20 22 15.52 22 10C22 4.48003 17.52 0 12 0ZM4.82666 10C4.82666 6.02667 8.05332 2.80001 12 2.80001C13.4933 2.80001 14.9067 3.25335 16.0533 4.05333L6.08002 14.0534C5.28 12.9067 4.82666 11.4933 4.82666 10ZM12 17.1733C10.5067 17.1733 9.09331 16.72 7.94667 15.92L17.92 5.94667C18.72 7.09335 19.1733 8.50666 19.1733 10C19.1733 13.9733 15.9733 17.1733 12 17.1733Z" fill="#2BAEE0"/>
</svg>