 <svg width="24" height="24" viewBox="0 0 24 24" fill="none">
      <path
        d="M4.52003 5.93553L1.39303 2.80953L2.80803 1.39453L22.607 21.1945L21.192 22.6085L17.882 19.2985C16.1232 20.4141 14.0828 21.0049 12 21.0015C6.60803 21.0015 2.12203 17.1215 1.18103 12.0015C1.61106 9.67225 2.78266 7.54443 4.52103 5.93553H4.52003ZM14.757 16.1735L13.293 14.7095C12.7331 14.9774 12.1038 15.0651 11.492 14.9603C10.8801 14.8556 10.3158 14.5636 9.8769 14.1247C9.43797 13.6857 9.146 13.1214 9.04125 12.5096C8.93649 11.8978 9.02411 11.2685 9.29203 10.7085L7.82803 9.24453C7.19175 10.206 6.9073 11.3579 7.02286 12.505C7.13842 13.6522 7.64688 14.7241 8.46215 15.5394C9.27742 16.3547 10.3494 16.8631 11.4965 16.9787C12.6437 17.0943 13.7955 16.8098 14.757 16.1735V16.1735ZM7.97403 3.76153C9.22103 3.27153 10.58 3.00153 12 3.00153C17.392 3.00153 21.878 6.88153 22.819 12.0015C22.5126 13.6672 21.8239 15.2391 20.807 16.5935L16.947 12.7335C17.0617 11.9611 16.9939 11.1726 16.749 10.4312C16.5041 9.68973 16.0889 9.01594 15.5368 8.4638C14.9846 7.91165 14.3108 7.4965 13.5694 7.25161C12.8279 7.00671 12.0394 6.93887 11.267 7.05353L7.97403 3.76253V3.76153Z"
        fill="#8E9294"
      />
    </svg>
