<svg xmlns="http://www.w3.org/2000/svg" width="24" height="24" viewBox="0 0 24 24" fill="none">
<path d="M13.1997 6.19085C13.1997 8.50545 11.3536 10.3817 9.07611 10.3817C6.79866 10.3817 4.95251 8.50545 4.95251 6.19085C4.95251 3.87626 6.79866 2 9.07611 2C11.3536 2 13.1997 3.87626 13.1997 6.19085Z" fill="#2BAEE0"/>
<path d="M13.5759 14.7472C12.3142 13.6834 10.7244 13.1046 9.08494 13.1123H9.07114C7.16035 13.1171 5.37976 13.8731 4.06407 15.2433C2.79958 16.5662 2.06973 18.3474 2 20.2988L13.4504 20.2752C12.4024 18.5722 12.4516 16.399 13.5759 14.7472Z" fill="#2BAEE0"/>
<path d="M17.6761 13.2119C15.2882 13.2119 13.3525 15.1792 13.3525 17.606C13.3525 20.0328 15.2882 22 17.6761 22C20.0639 22 21.9996 20.0328 21.9996 17.606C22.0092 16.4375 21.5569 15.3143 20.7438 14.4882C19.931 13.6619 18.8258 13.2021 17.6761 13.2119ZM19.5589 17.9367H15.7932C15.6136 17.9367 15.4678 17.7887 15.4678 17.606C15.4678 17.4232 15.6136 17.2752 15.7932 17.2752H19.5589C19.7387 17.2752 19.8843 17.4232 19.8843 17.606C19.8843 17.7887 19.7387 17.9367 19.5589 17.9367Z" fill="#2BAEE0"/>
</svg>