<svg xmlns="http://www.w3.org/2000/svg" width="24" height="24" viewBox="0 0 24 24" fill="none">
<path d="M14.0691 6.86059C14.9939 7.43474 15.6423 8.40633 15.7604 9.53411C16.1375 9.70861 16.5561 9.80895 16.9999 9.80895C18.62 9.80895 19.9331 8.50865 19.9331 6.90459C19.9331 5.30028 18.62 3.99998 16.9999 3.99998C15.3952 4.00047 14.0936 5.27754 14.0691 6.86059ZM12.1475 12.8077C13.7676 12.8077 15.0807 11.5072 15.0807 9.90312C15.0807 8.29906 13.7674 6.99876 12.1475 6.99876C10.5276 6.99876 9.21378 8.29931 9.21378 9.90337C9.21378 11.5074 10.5276 12.8077 12.1475 12.8077ZM13.3917 13.0057H10.9028C8.8319 13.0057 7.14714 14.6743 7.14714 16.725V19.7391L7.15487 19.7863L7.36453 19.8513C9.34082 20.4627 11.0578 20.6666 12.471 20.6666C15.2312 20.6666 16.8312 19.8874 16.9297 19.8377L17.1257 19.7395H17.1466V16.725C17.1474 14.6743 15.4626 13.0057 13.3917 13.0057ZM18.2446 10.0072H15.7749C15.7482 10.9857 15.3263 11.8668 14.6592 12.5005C16.4999 13.0425 17.8468 14.7329 17.8468 16.7294V17.6582C20.2853 17.5697 21.6905 16.8854 21.7831 16.8394L21.979 16.741H22V13.7259C22 11.6755 20.3152 10.0072 18.2446 10.0072ZM7.00062 9.80945C7.57444 9.80945 8.10832 9.6436 8.56059 9.3611C8.70436 8.43252 9.20704 7.6211 9.92512 7.06845C9.92812 7.01408 9.93336 6.9602 9.93336 6.90533C9.93336 5.30102 8.61999 4.00072 7.00062 4.00072C5.38026 4.00072 4.06739 5.30102 4.06739 6.90533C4.06739 8.5089 5.38026 9.80945 7.00062 9.80945ZM9.63484 12.5005C8.97092 11.87 8.55061 10.9936 8.51991 10.021C8.4283 10.0143 8.3377 10.0072 8.24435 10.0072H5.75565C3.68476 10.0072 2 11.6755 2 13.7259V16.7405L2.00774 16.787L2.2174 16.8525C3.80282 17.3426 5.21777 17.5685 6.44677 17.6397V16.7294C6.44727 14.7329 7.79359 13.043 9.63484 12.5005Z" fill="#2BAEE0"/>
</svg>