<svg xmlns="http://www.w3.org/2000/svg" width="24" height="24" viewBox="0 0 24 24" fill="none">
<path d="M20.2574 4.34219C19.7687 3.85327 19.1885 3.46543 18.5498 3.20081C17.9112 2.9362 17.2267 2.8 16.5354 2.8C15.8442 2.8 15.1597 2.9362 14.521 3.20081C13.8824 3.46543 13.3022 3.85327 12.8135 4.34219L11.7993 5.35639L10.7851 4.34219C9.79798 3.35507 8.45917 2.80051 7.06317 2.80051C5.66717 2.80051 4.32835 3.35507 3.34124 4.34219C2.35412 5.32931 1.79956 6.66813 1.79956 8.06412C1.79956 9.46012 2.35412 10.7989 3.34124 11.7861L4.35544 12.8003L11.7993 20.2441L19.2432 12.8003L20.2574 11.7861C20.7463 11.2974 21.1341 10.7171 21.3988 10.0785C21.6634 9.4399 21.7996 8.7554 21.7996 8.06412C21.7996 7.37285 21.6634 6.68835 21.3988 6.04973C21.1341 5.41111 20.7463 4.83088 20.2574 4.34219Z" stroke="#122434" stroke-width="2" stroke-linecap="round" stroke-linejoin="round"/>
</svg>