<svg xmlns="http://www.w3.org/2000/svg" width="24" height="24" viewBox="0 0 24 24" fill="none">
<path fill-rule="evenodd" clip-rule="evenodd" d="M12.7085 3.54046C13.7425 2.54083 15.1275 1.9877 16.565 2.00021C18.0025 2.01271 19.3776 2.58984 20.3942 3.60731C21.4107 4.62477 21.9873 6.00115 21.9998 7.44C22.0123 8.87886 21.4597 10.2651 20.461 11.3L20.4498 11.3114L17.7086 14.0551C17.1528 14.6116 16.4839 15.042 15.7473 15.317C15.0107 15.5921 14.2236 15.7053 13.4394 15.6491C12.6553 15.5929 11.8923 15.3685 11.2024 14.9912C10.5125 14.614 9.91169 14.0926 9.44078 13.4624C9.13849 13.058 9.22105 12.4848 9.62517 12.1822C10.0293 11.8797 10.6019 11.9623 10.9042 12.3668C11.2182 12.7869 11.6187 13.1344 12.0786 13.386C12.5386 13.6375 13.0472 13.7871 13.57 13.8245C14.0928 13.862 14.6175 13.7865 15.1086 13.6032C15.5996 13.4198 16.0456 13.1329 16.4161 12.7619L16.4162 12.7618L19.1516 10.0239C19.8141 9.33445 20.1806 8.41263 20.1723 7.4559C20.164 6.49666 19.7796 5.57907 19.1019 4.90077C18.4242 4.22246 17.5075 3.8377 16.5491 3.82937C15.5928 3.82105 14.6715 4.18818 13.9826 4.85186L12.4159 6.41093C12.058 6.76707 11.4794 6.76538 11.1236 6.40716C10.7678 6.04894 10.7695 5.46984 11.1274 5.11371L12.699 3.54972L12.7085 3.54046Z" fill="#122434"/>
<path fill-rule="evenodd" clip-rule="evenodd" d="M8.2527 8.68295C8.9893 8.40792 9.77638 8.29468 10.5606 8.35089C11.3447 8.4071 12.1077 8.63146 12.7976 9.00875C13.4875 9.38603 14.0883 9.90742 14.5592 10.5375C14.8615 10.942 14.779 11.5152 14.3748 11.8178C13.9707 12.1203 13.3981 12.0377 13.0958 11.6332C12.7818 11.2131 12.3813 10.8655 11.9214 10.614C11.4614 10.3625 10.9528 10.2129 10.43 10.1754C9.90722 10.138 9.3825 10.2135 8.89143 10.3968C8.40036 10.5802 7.95444 10.8671 7.58389 11.2381L4.84838 13.9761C4.18585 14.6655 3.81938 15.5874 3.82769 16.5441C3.83602 17.5033 4.22042 18.4209 4.8981 19.0992C5.57579 19.7775 6.49253 20.1623 7.45089 20.1706C8.40674 20.1789 9.3277 19.8121 10.0165 19.149L11.5731 17.5909C11.93 17.2338 12.5085 17.2338 12.8654 17.5909C13.2222 17.9481 13.2222 18.5272 12.8654 18.8844L11.3028 20.4484L11.2915 20.4595C10.2575 21.4592 8.87254 22.0123 7.43501 21.9998C5.99748 21.9873 4.62236 21.4101 3.60583 20.3927C2.5893 19.3752 2.0127 17.9988 2.00021 16.56C1.98772 15.1211 2.54034 13.7349 3.53904 12.6999L3.55018 12.6886L6.29138 9.94488C6.29142 9.94484 6.29135 9.94492 6.29138 9.94488C6.84718 9.38841 7.51615 8.95796 8.2527 8.68295Z" fill="#122434"/>
</svg>