<svg xmlns="http://www.w3.org/2000/svg" width="73" height="73" viewBox="0 0 73 73" fill="none">
<rect width="73" height="73" fill="white"/>
<g clip-path="url(#clip0)">
<path d="M37.346 36.9811L52.9479 21.3668C53.3271 20.9874 53.3271 20.3803 52.9479 20.0198C52.5688 19.6404 51.9621 19.6404 51.6019 20.0198L35.6399 35.9755C35.583 36.0325 35.5451 36.0894 35.4882 36.1653C35.4124 36.2032 35.3555 36.2412 35.2986 36.317C34.9195 36.6965 34.9195 37.3036 35.2986 37.6641L51.583 53.9613C51.7726 54.151 52.019 54.2459 52.2655 54.2459C52.5119 54.2459 52.7584 54.151 52.9479 53.9613C53.3271 53.5819 53.3271 52.9748 52.9479 52.6143L37.346 36.9811Z" fill="#E92D30"/>
<path d="M35.9811 27.8933C35.4503 27.8933 35.0332 27.4569 35.0332 26.9447V13.9486C35.0332 13.4174 35.4692 13 35.9811 13C36.4929 13 36.9289 13.4364 36.9289 13.9486V26.9447C36.9479 27.4569 36.5119 27.8933 35.9811 27.8933Z" fill="#FFDA00"/>
<path d="M35.9811 61C35.4503 61 35.0332 60.5636 35.0332 60.0513V47.0553C35.0332 46.5241 35.4692 46.1067 35.9811 46.1067C36.5119 46.1067 36.9289 46.5431 36.9289 47.0553V60.0513C36.9479 60.5636 36.5119 61 35.9811 61Z" fill="#F6921E"/>
<path d="M59.981 37.1708C59.981 37.1518 59.981 37.1139 59.981 37.0949C59.981 37.0569 60 37.019 60 36.981C60 36.9431 60 36.9052 59.981 36.8672C59.981 36.8482 59.981 36.8103 59.981 36.7913C59.9431 36.6206 59.8673 36.4498 59.7156 36.298L53.2702 29.8475C52.891 29.468 52.2844 29.468 51.9052 29.8475C51.5261 30.2269 51.5261 30.834 51.9052 31.2135L56.7393 36.0514H46.0853C45.5545 36.0514 45.1375 36.4878 45.1375 37C45.1375 37.5312 45.5735 37.9486 46.0853 37.9486H56.7204L51.8863 42.7866C51.5071 43.166 51.5071 43.7731 51.8863 44.1526C52.0758 44.3423 52.3223 44.4372 52.5687 44.4372C52.8152 44.4372 53.0616 44.3423 53.2512 44.1526L59.6967 37.702C59.8483 37.5312 59.9431 37.3795 59.981 37.1708C59.981 37.1897 59.981 37.1897 59.981 37.1708Z" fill="#122434"/>
<path d="M20.3791 20.0198C20 19.6404 19.3934 19.6404 19.0332 20.0198C18.654 20.3993 18.654 21.0064 19.0332 21.3668L33.6872 36.0325H12.9479C12.4171 36.0325 12 36.4688 12 36.9811C12 37.5123 12.436 37.9297 12.9479 37.9297H33.6872L19.0332 52.5953C18.654 52.9748 18.654 53.5819 19.0332 53.9423C19.2227 54.1321 19.4692 54.2269 19.7156 54.2269C19.9621 54.2269 20.2085 54.1321 20.3981 53.9423L37.3649 36.9621L20.3791 20.0198Z" fill="#122434"/>
</g>
<defs>
<clipPath id="clip0">
<rect width="48" height="48" fill="white" transform="translate(12 13)"/>
</clipPath>
</defs>
</svg>